# xmcd CD database file
#
# Track frame offsets:
#	150
#	14589
#	28201
#	40653
#	53466
#	63212
#	72415
#	92849
#	105758
#	118374
#	131446
#	144426
#	159320
#	171920
#	185870
#	199945
#
# Disc length: 2854 seconds
#
# Revision: 1
# Processed by: cddbd v1.5.1PL0 Copyright (c) Steve Scherf et al.
# Submitted via: CDex 1.51
#
DISCID=df0b2410
DTITLE=Perez Prado - Cuban Originals
DYEAR=1900
DGENRE=Jazz
TTITLE0=Besame Mucho
TTITLE1=Peanut Vendor (El Manisero)
TTITLE2=Maria Bonita
TTITLE3=Historia De Un Amor
TTITLE4=Sabor A Mi
TTITLE5=Frenesi
TTITLE6=Granada
TTITLE7=Cu Cu Ru Cu Cu Paloma
TTITLE8=Mambo #5
TTITLE9=Lupita
TTITLE10=Esperame En El Cielo
TTITLE11=Mambo Del Politecnico
TTITLE12=Flight of the Bumble Bee
TTITLE13=Cerezo Rosa
TTITLE14=Que Rico El Mambo
TTITLE15=Mambo #8
EXTD=
EXTT0=
EXTT1=
EXTT2=
EXTT3=
EXTT4=
EXTT5=
EXTT6=
EXTT7=
EXTT8=
EXTT9=
EXTT10=
EXTT11=
EXTT12=
EXTT13=
EXTT14=
EXTT15=
PLAYORDER=
